<svg xmlns="http://www.w3.org/2000/svg" width="196" height="72" fill="none" viewBox="0 0 196 72">
  <path fill="#fff" d="M22.68 9.918s2.352 1.904 3.724 3.192c-.084.308-.42.448-.812.448H.616l-.224-.784h20.216l2.072-2.856Zm-12.516-1.26c8.512-.308 5.124 6.356 1.54 3.92-.14-1.4-.896-2.884-1.708-3.78l.168-.14Zm9.268 13.916 2.24-1.988 3.444 3.276c-.252.252-.532.336-1.176.364-2.996.84-7.952 1.568-11.228 1.876l-.14-.196c2.324-.84 5.572-2.296 7.196-3.332h-.336Zm-3.248 2.464c-.056.42-.336.644-.896.728v5.124c0 2.716-.7 4.116-5.376 4.48-.112-1.26-.28-2.128-.84-2.744-.532-.56-1.148-.98-2.884-1.288v-.336s3.64.224 4.284.224c.364 0 .504-.112.504-.448v-6.132l5.208.392Zm.98-9.52 1.764-1.96 3.78 2.8c-.168.224-.504.476-1.092.616v3.64c-.028.196-2.156.812-3.444.812h-.728v-5.908h-.28ZM9.072 20.81c0 .336-1.848 1.204-3.5 1.204h-.56v-8.092l4.284 1.596h9.688v.784H9.072v4.508Zm10.304-1.316v.784H7.28v-.784h12.096Zm1.904 3.08v.784H2.744l-.252-.784H21.28Zm1.68 2.296s2.352 1.848 3.752 3.08c-.056.308-.392.448-.812.448H.224L0 27.614h20.888l2.072-2.744Zm60.004-10.164c-.196.308-.756.532-1.652.112l.868-.14c-1.428 2.044-4.592 5.208-7.084 6.748l-.028-.336h1.456c-.112 1.652-.616 2.576-1.26 2.856l-1.428-3.248s.588-.168.84-.336c1.652-1.428 3.92-5.628 4.592-7.896l3.696 2.24Zm-1.568-4.34c-.14.336-.644.616-1.596.28l.924-.14c-1.316 1.624-3.752 3.836-5.628 4.816v-.308h1.512c-.112 1.68-.616 2.604-1.26 2.884l-1.456-3.304s.476-.112.728-.28c1.008-.952 2.296-4.116 2.604-5.74l4.172 1.792Zm-16.016 4.34c-.196.336-.756.532-1.652.14l.868-.14c-1.484 2.044-4.788 5.208-7.364 6.748l-.028-.336h1.428c-.112 1.652-.616 2.576-1.26 2.856l-1.428-3.248s.616-.168.868-.336c1.736-1.428 4.172-5.628 4.9-7.924l3.668 2.24Zm-1.848-4.312c-.14.336-.644.616-1.624.28l.924-.14c-1.288 1.624-3.696 3.808-5.516 4.844l-.028-.336h1.484c-.112 1.652-.616 2.548-1.232 2.856l-1.428-3.248s.476-.14.728-.308c1.008-.952 2.268-4.088 2.576-5.712l4.116 1.764ZM67.9 29.406c-.224.336-.588.448-1.316.336-2.968 2.52-7.476 3.808-10.78 4.172l-.112-.28c2.604-1.456 5.656-4.2 7.728-7.224l4.48 2.996Zm4.452-1.4c11.9-1.512 11.2 7.392 6.692 5.712-1.484-1.792-4.144-4.088-6.804-5.46l.112-.252Zm2.212-7.392c1.064-.028 3.556-.168 5.992-.364l.028.336c-.952.588-3.08 1.82-5.208 2.912l-.812-2.884Zm-.196-5.908c1.064-.028 3.5-.168 5.824-.336l.028.336c-.84.588-2.828 1.792-4.844 2.884l-1.008-2.884Zm5.124 3.024c5.516 2.996 2.436 7.28.364 4.984.112-1.624-.252-3.528-.7-4.872l.336-.112Zm-22.876 2.968c1.148-.028 3.864-.196 6.552-.392l.028.336a84.738 84.738 0 0 1-5.768 2.94l-.812-2.884Zm0-5.964c1.064-.028 3.5-.168 5.824-.336l.028.336c-.84.588-2.828 1.792-4.844 2.884l-1.008-2.884Zm16.072 8.792c-.056.364-.252.672-1.036.784v10.108c0 .28-1.876.952-3.584.952h-.728V23.078l5.348.448Zm6.104-.476s2.352 1.764 3.78 2.968c-.084.308-.392.448-.812.448H56.336l-.224-.784H76.72l2.072-2.632Zm-17.22-5.264c5.376 2.912 2.38 7.224.364 4.984.224-1.624-.168-3.556-.7-4.872l.336-.112Zm10.472-8.708c-.084.476-.42.728-1.036.784-.616.868-1.736 2.128-2.408 2.94h-.756c.056-1.092.056-2.968.028-4.228l4.172.504Zm-2.016 3.304 1.428-1.512 2.912 2.212c-.14.168-.42.336-.84.448v8.372c-.028.196-1.624.84-2.716.84h-.56v-10.36h-.224Zm-1.736 9.912c0 .308-1.344.98-2.66.98h-.448v-12.18l3.22 1.288h3.78v.784h-3.892v9.128Zm3.64-1.68v.784h-5.404v-.784h5.404Zm0-4.172v.784h-5.404v-.784h5.404Zm56.336.028h-3.5v-5.18h3.5v5.18Zm4.536-5.18v5.18h-3.444v-5.18h3.444Zm-2.436 14.728s1.708 1.4 2.716 2.38c-.084.308-.364.448-.756.448h-7.336l-.224-.784h4.116l1.484-2.044Zm-16.464.616c.448 0 .56 0 .868-.588.616-1.12.616-1.12 5.628-13.384l.42.084c-.952 3.668-2.576 10.36-2.884 12.068-.224 1.036-.392 2.128-.392 2.884.084 1.652 1.372 2.52 1.316 5.152-.056 1.512-1.148 2.548-2.716 2.548-.7 0-1.54-.336-1.82-1.456.588-2.968.476-5.852-.196-6.328-.392-.28-.896-.42-1.484-.476v-.504h1.26Zm-1.764-11.06c8.288.504 5.292 6.832 1.932 4.564-.308-1.596-1.26-3.304-2.128-4.424l.196-.14Zm2.296-6.468c8.372.784 5.264 7.084 1.904 4.76-.308-1.652-1.26-3.416-2.128-4.62l.224-.14Zm6.328 5.46 3.864 1.428h8.624l1.82-2.072 3.22 2.576c-.196.28-.532.504-1.176.616v17.08c0 .196-1.204.98-3.08.98h-.616V16.778h-9.128v17.64c0 .252-1.092.924-2.884.924h-.644V14.566Zm7.504 4.788c0 2.128-.392 5.124-4.032 6.888l-.252-.308c1.428-1.96 1.428-4.48 1.428-6.58v-2.94h2.856v2.94Zm3.92-2.94v5.516c0 .308.056.42.364.42h.56c.168 0 .392-.028.532-.028s.42 0 .532-.028c.168 0 .42-.056.616-.112h.252l.112.056c.7.28.924.588.924 1.12 0 1.064-.868 1.484-3.36 1.484h-1.148c-1.96 0-2.184-.588-2.184-2.268v-6.16h2.8Zm3.248 15.456v.784H122.92v-.784h12.516Zm-.056-23.324s2.072 1.596 3.332 2.716c-.084.308-.392.448-.784.448h-17.836l-.224-.784h13.692l1.82-2.38Zm43.876.196c9.24.14 5.992 7.336 2.184 4.844-.308-1.736-1.344-3.528-2.352-4.704l.168-.14Zm-8.792 3.416 4.648 1.568h-.588v7.112c0 4.676-.336 10.78-6.356 14.616l-.224-.168c2.408-4.228 2.52-9.632 2.52-14.448v-8.68Zm20.776-1.092s2.184 1.792 3.444 2.996c-.084.308-.392.448-.784.448h-21.532v-.784h16.94l1.932-2.66Zm-1.176 5.628s2.324 1.904 3.668 3.164c-.084.308-.392.448-.812.448h-9.548v-.784h4.648l2.044-2.828Zm-3.696-1.456c-.056.392-.224.672-1.008.812v9.548h-4.06V14.846l5.068.392Zm2.772 16.464v.784h-12.236v-.784h12.236Zm-13.692-8.232 4.06 1.512h7.812l1.82-2.044 3.36 2.548c-.168.252-.448.42-1.092.56v8.316c0 .168-1.204.812-3.248.812h-.7v-9.408h-8.232v8.792c0 .224-1.148.84-3.08.84h-.7V23.47ZM.311 58.15c-.207 0-.311-.102-.311-.305 0-.096.035-.221.104-.377.08-.167.15-.316.207-.448.346-.752.802-1.642 1.366-2.67a99.205 99.205 0 0 1 2.058-3.477c-.311 0-.467-.095-.467-.286 0-.203.11-.305.329-.305l.519.018c.357-.561.663-1.033.916-1.416.254-.382.456-.68.606-.896.253-.346.524-.693.812-1.04.3-.358.629-.704.986-1.039.542-.12 1.095-.203 1.66-.25.577-.06 1.159-.09 1.747-.09 1.037 0 1.764.054 2.179.161.15.036.248.078.294.126a.242.242 0 0 1 .086.197c0 .203-.086.304-.26.304-.138 0-.403-.03-.795-.09-.392-.071-.991-.107-1.798-.107-.392 0-.825.024-1.297.072-.473.048-.992.12-1.557.215-.484.382-1.458 1.667-2.922 3.853H9.01c.184 0 .276.096.276.287 0 .19-.092.286-.276.286h-4.6c-1.672 2.653-2.9 4.84-3.684 6.56 3.113-.717 5.465-1.076 7.056-1.076 1.107 0 1.66.275 1.66.825 0 .19-.092.286-.277.286-.15 0-.23-.06-.242-.179-.011-.131-.115-.215-.311-.25-.184-.049-.478-.072-.882-.072-.507 0-1.078.041-1.712.125a40.01 40.01 0 0 0-2.006.287c-1.015.155-1.839.322-2.473.502-.634.179-1.043.268-1.228.268Zm12.423-.216c-.184 0-.277-.077-.277-.233a.47.47 0 0 1 .07-.215c.046-.095.086-.173.12-.233l1.557-3.243c.669-1.41 1.003-2.193 1.003-2.348 0-.167.08-.25.242-.25.22 0 .329.119.329.358 0 .083-.052.262-.156.537-.104.275-.236.586-.398.932-.276.621-.507 1.1-.691 1.434a20.48 20.48 0 0 1 1.055-1.183c.357-.37.72-.723 1.089-1.057 1.095-.992 1.937-1.488 2.525-1.488.403 0 .605.197.605.591 0 .359-.294 1.165-.882 2.42-.588 1.266-.882 2.067-.882 2.401 0 .156.052.233.156.233a.532.532 0 0 0 .155-.036.591.591 0 0 1 .243-.053c.196 0 .294.095.294.286 0 .24-.248.359-.744.359-.23 0-.398-.054-.502-.161a.685.685 0 0 1-.155-.466c0-.574.282-1.446.847-2.617.565-1.159.848-1.858.848-2.097 0-.143-.052-.215-.156-.215-.254 0-.663.221-1.228.663a19.02 19.02 0 0 0-1.833 1.65 16.044 16.044 0 0 0-1.747 2.132l-1.21 1.738c-.07.108-.161.161-.277.161Zm12.113-7.509c-.196 0-.294-.101-.294-.304 0-.06.04-.168.121-.323.081-.167.173-.334.277-.502.104-.167.185-.28.242-.34.196-.227.346-.37.45-.43a.686.686 0 0 1 .311-.09c.242 0 .363.114.363.34 0 .084-.052.186-.155.305a2.06 2.06 0 0 1-.329.305c-.184.12-.3.215-.346.287l-.38.555a.319.319 0 0 1-.087.144c-.034.035-.092.053-.173.053Zm-6.104 13.03a.958.958 0 0 1-.761-.341 1.884 1.884 0 0 1-.45-.807 2.823 2.823 0 0 1-.155-.896c0-.346.034-.663.104-.95.092-.418.242-.627.45-.627.184 0 .276.09.276.269a.453.453 0 0 1-.07.197 1.81 1.81 0 0 0-.103.215c-.07.191-.104.436-.104.735 0 .37.07.723.208 1.057.138.347.357.52.657.52.23 0 .46-.096.691-.287.231-.191.456-.436.675-.735.207-.286.403-.591.588-.914.173-.322.317-.62.432-.896a27.424 27.424 0 0 0 .916-2.437c.14-.394.231-.71.277-.95l.277-1.415.311-1.434c.196-.849.392-1.44.588-1.774.196-.335.375-.502.537-.502.08 0 .172.036.276.107.115.072.173.156.173.251 0 .048-.115.275-.346.681a26.32 26.32 0 0 0-.432.807 4.886 4.886 0 0 0-.156.537c-.069.275-.15.604-.242.986a102.31 102.31 0 0 1-.519 2.24 8.034 8.034 0 0 1-.19.753 17.09 17.09 0 0 1-.657 1.828 14.024 14.024 0 0 1-.813 1.63c-.841 1.434-1.654 2.151-2.438 2.151Zm9.42-6.058c-.934 0-1.401-.544-1.401-1.631 0-.502.115-1.027.346-1.577a6.16 6.16 0 0 1 .916-1.523c.38-.478.802-.867 1.263-1.165.472-.299.95-.448 1.435-.448.427 0 .738.167.934.502.196.334.294.704.294 1.11 0 .538-.104 1.088-.311 1.65a5.931 5.931 0 0 1-.848 1.523c-.357.466-.76.842-1.21 1.129-.45.286-.923.43-1.418.43Zm-.018-.574c.07 0 .11-.006.121-.018.45-.06.865-.227 1.246-.501a4.08 4.08 0 0 0 .985-1.022 4.961 4.961 0 0 0 .882-2.76c0-.275-.075-.49-.225-.645a.759.759 0 0 0-.57-.233c-.335 0-.692.143-1.072.43-.37.287-.721.651-1.055 1.093a6.985 6.985 0 0 0-.796 1.398c-.207.478-.311.908-.311 1.29 0 .646.265.968.795.968Zm5.863 6.595c-.703 0-1.055-.43-1.055-1.29 0-.729.15-1.434.45-2.115.046-.12.12-.179.224-.179.208 0 .312.096.312.287a.434.434 0 0 1-.052.179 3.65 3.65 0 0 1-.087.269 4.64 4.64 0 0 0-.19.717 4.35 4.35 0 0 0-.07.788c0 .31.041.52.122.627a.37.37 0 0 0 .311.162c.3 0 .652-.144 1.055-.43.415-.287.842-.741 1.28-1.362.311-.442.634-.968.968-1.578a45.45 45.45 0 0 0 1.072-2.096 45.37 45.37 0 0 0 1.401-3.172 20.17 20.17 0 0 1-.9 1.11 10.12 10.12 0 0 1-1.002 1.004c-.957.849-1.753 1.273-2.387 1.273-.76 0-1.14-.454-1.14-1.362 0-.323.057-.711.172-1.165.127-.454.3-.974.519-1.56a.723.723 0 0 0 .052-.232.49.49 0 0 1 .052-.215c.184-.418.49-.884.916-1.398.092-.108.173-.161.242-.161.173 0 .26.131.26.394-1.119 1.708-1.678 3.154-1.678 4.337 0 .502.19.752.57.752.427 0 1.021-.304 1.782-.913.542-.43 1.043-.914 1.505-1.452.46-.55.876-1.117 1.245-1.703.253-.394.455-.74.605-1.039.161-.31.26-.52.294-.627.057-.18.138-.27.242-.27.219 0 .329.096.329.288 0 .095-.047.268-.139.52-.08.238-.184.525-.311.86-.184.49-.45 1.147-.795 1.97a106.03 106.03 0 0 1-1.297 2.94c-.646 1.41-1.28 2.563-1.903 3.459a7.93 7.93 0 0 1-1.522 1.702c-.541.454-1.026.681-1.452.681Zm8.645-5.322c-.196 0-.294-.096-.294-.287 0-.012.07-.161.208-.448.138-.287.334-.711.587-1.272l.882-1.918c.358-.777.611-1.392.761-1.846.162-.454.242-.747.242-.878 0-.191.093-.287.277-.287.185 0 .277.096.277.287 0 .155-.052.4-.156.735-.092.322-.248.74-.467 1.254l-.882 2.079c2.41-3.154 4.226-4.731 5.448-4.731.23 0 .409.101.536.305.127.19.19.406.19.645 0 .573-.398 1.57-1.193 2.992.61-.645 1.228-1.29 1.85-1.935a145.86 145.86 0 0 1 1.902-1.935c.162-.156.294-.233.398-.233.139 0 .254.071.346.215a.733.733 0 0 1 .138.43c0 .12-.052.268-.155.448a5.57 5.57 0 0 0-.415.95l-.433 1.218c-.184.514-.317.962-.397 1.344a4.706 4.706 0 0 0-.121.932c0 .299.069.52.207.663.138.132.277.197.415.197.242 0 .507-.065.796-.197.288-.131.524-.263.709-.394.369-.25.755-.562 1.158-.932.404-.382.79-.764 1.159-1.147.046-.048.115-.072.207-.072.173 0 .26.072.26.215 0 .132-.08.281-.242.449-.462.477-.877.89-1.245 1.236a8.25 8.25 0 0 1-1.055.825c-.22.13-.485.268-.796.412a2.37 2.37 0 0 1-1.003.215c-.334 0-.617-.108-.847-.323-.22-.215-.329-.675-.329-1.38 0-.275.046-.597.139-.968.092-.382.23-.806.415-1.272l.916-2.258-2.473 2.58a34.776 34.776 0 0 0-1.158 1.255 9.85 9.85 0 0 0-.588.7c-.162.226-.3.423-.415.59-.081.132-.173.198-.277.198-.196 0-.294-.084-.294-.251 0-.37.323-1.225.968-2.563.646-1.338.969-2.139.969-2.402 0-.119-.127-.179-.38-.179-1.027 0-2.854 1.739-5.483 5.215-.219.323-.582.807-1.089 1.452-.035.048-.092.072-.173.072Zm16.864-.287c-.484 0-.864-.173-1.14-.52-.278-.346-.416-.77-.416-1.272 0-.86.277-1.745.83-2.653.15-.25.323-.495.519-.734.196-.251.41-.49.64-.717a5.592 5.592 0 0 1 1.09-.86c.38-.227.749-.34 1.106-.34.588 0 .882.286.882.86 0 .716-.404 1.367-1.21 1.953-.75.525-1.488.788-2.214.788-.127 0-.242-.006-.346-.018a7.865 7.865 0 0 1-.26-.071 4.38 4.38 0 0 0-.31.878 3.783 3.783 0 0 0-.139.932c0 .788.334 1.183 1.003 1.183.542 0 1.055-.096 1.54-.287.483-.203 1.06-.58 1.728-1.13.416-.334.727-.603.934-.806.208-.203.433-.418.675-.645a.343.343 0 0 1 .19-.072c.058 0 .115.018.173.054.058.036.086.09.086.161 0 .132-.115.317-.346.556l-.622.61c-.22.203-.565.49-1.038.86a6.094 6.094 0 0 1-1.66.95c-.6.226-1.164.34-1.695.34ZM59.5 53.74c.37 0 .72-.06 1.055-.18.334-.119.651-.292.951-.52.669-.513 1.003-.997 1.003-1.45 0-.204-.12-.305-.363-.305-.461 0-.997.292-1.608.878-.3.286-.548.55-.744.788a6.053 6.053 0 0 0-.519.753.69.69 0 0 0 .225.036Zm5.492 4.194c-.185 0-.277-.077-.277-.233 0-.06.023-.131.07-.215.045-.095.086-.173.12-.233l1.557-3.243c.668-1.41 1.003-2.193 1.003-2.348 0-.167.08-.25.242-.25.219 0 .328.119.328.358 0 .083-.051.262-.155.537-.104.275-.237.586-.398.932a19.79 19.79 0 0 1-.692 1.434 20.86 20.86 0 0 1 1.055-1.183c.358-.37.72-.723 1.09-1.057 1.095-.992 1.936-1.488 2.524-1.488.404 0 .606.197.606.591 0 .359-.294 1.165-.882 2.42-.588 1.266-.882 2.067-.882 2.401 0 .156.052.233.155.233a.532.532 0 0 0 .156-.036.59.59 0 0 1 .242-.053c.196 0 .294.095.294.286 0 .24-.248.359-.743.359-.231 0-.398-.054-.502-.161a.685.685 0 0 1-.156-.466c0-.574.283-1.446.848-2.617.565-1.159.847-1.858.847-2.097 0-.143-.052-.215-.155-.215-.254 0-.663.221-1.228.663a19.02 19.02 0 0 0-1.833 1.65 16.044 16.044 0 0 0-1.747 2.132l-1.21 1.738c-.07.108-.162.161-.277.161Zm9.225.789c-.22 0-.329-.18-.329-.538 0-.525.283-1.445.848-2.76.576-1.314 1.43-3.034 2.56-5.16-.439 0-.854.059-1.246.178-.38.108-.582.245-.605.413a.32.32 0 0 1-.087.143c-.034.036-.092.054-.173.054-.184 0-.276-.096-.276-.287 0-.31.236-.568.709-.77.472-.204 1.135-.305 1.988-.305l1.194-2.043.26-.43c.091-.168.195-.347.31-.538.116-.167.248-.251.398-.251.092 0 .162.03.208.09a.224.224 0 0 1 .069.16c0 .18-.254.658-.761 1.435a71.379 71.379 0 0 0-1.02 1.577c.172 0 .432.018.778.053.346.024.755.066 1.228.126.172.012.259.101.259.269 0 .19-.104.286-.311.286a6.17 6.17 0 0 1-.484-.035 12.871 12.871 0 0 0-.779-.09 4.923 4.923 0 0 0-.709-.018l-.26.018c-2.34 4.265-3.504 6.918-3.492 7.957l.017.143v.036c0 .191-.098.287-.294.287Zm11.668-.466c-.081 0-.173-.042-.277-.125-.104-.084-.156-.174-.156-.27 0-.107.115-.382.346-.824.23-.442.6-1.105 1.107-1.989.507-.884 1.17-2.031 1.989-3.44l2.265-3.925c.127-.24.282-.52.467-.843.184-.322.41-.705.674-1.147.07-.107.144-.161.225-.161.08 0 .161.042.242.125.08.072.121.15.121.233 0 .048-.288.58-.864 1.595a826.87 826.87 0 0 1-2.612 4.499c-.438.752-.916 1.583-1.435 2.49a267.46 267.46 0 0 0-1.626 2.958c3.344-.932 5.915-1.398 7.713-1.398.542 0 .992.095 1.35.287.368.179.552.358.552.537 0 .203-.098.305-.293.305-.162 0-.243-.09-.243-.269v-.054c-.115-.06-.31-.107-.588-.143a7.486 7.486 0 0 0-.95-.054c-.439 0-.935.042-1.488.126a22.73 22.73 0 0 0-1.695.286c-.565.108-1.095.221-1.59.34a29.84 29.84 0 0 0-1.384.341c-.427.132-.824.245-1.193.34-.22.049-.38.09-.484.126a.724.724 0 0 1-.173.054Zm17.917-.161c-.565 0-.847-.424-.847-1.273 0-.454.104-1.003.311-1.648-1.395 1.684-2.49 2.526-3.285 2.526-.658 0-.986-.412-.986-1.236 0-.31.046-.681.138-1.111.104-.442.236-.896.398-1.362.173-.466.357-.902.553-1.308.196-.407.392-.735.588-.986a.324.324 0 0 1 .26-.126c.057 0 .115.024.173.072.057.036.086.096.086.18 0 .071-.04.172-.121.304-.519.884-.888 1.655-1.107 2.312-.276.753-.415 1.404-.415 1.953 0 .514.127.77.38.77.162 0 .375-.083.64-.25.266-.167.537-.37.813-.61.288-.25.536-.483.744-.698a15.317 15.317 0 0 0 1.556-2.025c.208-.335.392-.658.554-.968.173-.323.328-.657.466-1.004a3.1 3.1 0 0 1 .139-.286.214.214 0 0 1 .19-.108c.242 0 .363.096.363.287 0 .12-.04.203-.121.25-1.176 2.474-1.764 4.176-1.764 5.108 0 .251.023.43.069.538.047.095.127.143.243.143.161 0 .409-.107.743-.322.346-.216.75-.544 1.211-.986l1.815-1.72c.093-.096.179-.144.26-.144.184 0 .277.09.277.269 0 .155-.364.573-1.09 1.254a15.903 15.903 0 0 1-1.504 1.29 8.207 8.207 0 0 1-1.038.664c-.3.167-.53.25-.692.25Zm3.939-.162c-.196 0-.294-.095-.294-.286 0-.096.138-.299.415-.61.288-.322.726-.74 1.314-1.254l2.075-1.828c-.08-.323-.155-.61-.225-.86a6.329 6.329 0 0 0-.172-.628c-.22-.693-.416-1.129-.588-1.308a.328.328 0 0 1-.104-.233c0-.179.086-.269.259-.269.265 0 .542.419.83 1.255.092.275.179.55.26.824l.242.825c1.256-1.076 2.075-1.816 2.455-2.223a2.3 2.3 0 0 0 .191-.215.503.503 0 0 0 .069-.125.299.299 0 0 1 .294-.197c.184 0 .276.09.276.269 0 .358-1.037 1.38-3.112 3.064.138.502.282.974.432 1.416.15.442.323.806.519 1.093.207.275.438.412.692.412.242 0 .495-.066.76-.197.277-.131.554-.293.83-.484.277-.203.525-.394.744-.573.415-.335.726-.604.934-.807.207-.203.432-.418.674-.645a.346.346 0 0 1 .191-.072c.057 0 .115.018.173.054.057.036.086.09.086.161 0 .132-.115.317-.346.556l-.622.61a17.6 17.6 0 0 1-1.038.86 5.917 5.917 0 0 1-.744.501 5.022 5.022 0 0 1-.847.413c-.277.107-.53.16-.761.16-.392 0-.726-.143-1.003-.43-.265-.298-.49-.68-.674-1.146a16.553 16.553 0 0 1-.502-1.47l-1.781 1.577a15.5 15.5 0 0 0-.951.896 13.95 13.95 0 0 0-.726.807c-.047.072-.121.107-.225.107Zm15.732.162c-.565 0-.847-.424-.847-1.273 0-.454.104-1.003.311-1.648-1.395 1.684-2.49 2.526-3.286 2.526-.657 0-.985-.412-.985-1.236 0-.31.046-.681.138-1.111.104-.442.236-.896.398-1.362.173-.466.357-.902.553-1.308.196-.407.392-.735.588-.986a.323.323 0 0 1 .259-.126.27.27 0 0 1 .173.072c.058.036.087.096.087.18 0 .071-.04.172-.121.304-.519.884-.888 1.655-1.107 2.312-.277.753-.415 1.404-.415 1.953 0 .514.127.77.38.77.162 0 .375-.083.64-.25.266-.167.536-.37.813-.61.288-.25.536-.483.744-.698a15.317 15.317 0 0 0 1.556-2.025c.208-.335.392-.658.553-.968.173-.323.329-.657.467-1.004a3.1 3.1 0 0 1 .139-.286.214.214 0 0 1 .19-.108c.242 0 .363.096.363.287 0 .12-.04.203-.121.25-1.176 2.474-1.764 4.176-1.764 5.108 0 .251.023.43.069.538.046.095.127.143.242.143.162 0 .41-.107.744-.322.346-.216.749-.544 1.211-.986l1.815-1.72c.093-.096.179-.144.26-.144.184 0 .276.09.276.269 0 .155-.363.573-1.089 1.254a15.28 15.28 0 0 1-1.505 1.29 8.204 8.204 0 0 1-1.037.664c-.3.167-.53.25-.692.25Zm4.406-.162c-.185 0-.277-.077-.277-.233 0-.071.017-.143.052-.215a1.75 1.75 0 0 0 .103-.179l1.574-3.297c.669-1.41 1.003-2.193 1.003-2.348 0-.167.081-.25.242-.25.219 0 .329.113.329.34 0 .12-.052.31-.156.573a16.64 16.64 0 0 1-.398.914c-.276.621-.507 1.1-.691 1.434a20.48 20.48 0 0 1 1.055-1.183c.357-.37.72-.723 1.089-1.057 1.095-.992 1.937-1.488 2.525-1.488.403 0 .605.197.605.591 0 .383-.121.574-.363.574-.115 0-.202-.102-.259-.305-.035-.143-.116-.215-.243-.215-.196 0-.576.221-1.141.663a17.21 17.21 0 0 0-1.885 1.703c-.622.657-1.285 1.493-1.989 2.509l-.864 1.254a.763.763 0 0 1-.139.144c-.034.047-.092.071-.172.071Zm7.648 5.484c-.703 0-1.055-.43-1.055-1.29 0-.729.15-1.434.45-2.115.046-.12.121-.179.225-.179.207 0 .311.096.311.287a.428.428 0 0 1-.052.179 3.888 3.888 0 0 1-.086.269 4.368 4.368 0 0 0-.26 1.505c0 .31.041.52.121.627a.374.374 0 0 0 .312.162c.299 0 .651-.144 1.054-.43.415-.287.842-.741 1.28-1.362.311-.442.634-.968.969-1.578.334-.609.691-1.308 1.072-2.096.507-1.04.974-2.097 1.4-3.172-.288.382-.588.752-.899 1.11a9.8 9.8 0 0 1-1.003 1.004c-.957.849-1.752 1.273-2.386 1.273-.761 0-1.142-.454-1.142-1.362 0-.323.058-.711.173-1.165.127-.454.3-.974.519-1.56a.713.713 0 0 0 .052-.232c0-.072.017-.144.052-.215.184-.418.49-.884.916-1.398.093-.108.173-.161.243-.161.172 0 .259.131.259.394-1.118 1.708-1.678 3.154-1.678 4.337 0 .502.191.752.571.752.427 0 1.02-.304 1.781-.913.542-.43 1.044-.914 1.505-1.452.461-.55.876-1.117 1.245-1.703.254-.394.455-.74.605-1.039.162-.31.26-.52.294-.627.058-.18.139-.27.242-.27.219 0 .329.096.329.288 0 .095-.046.268-.138.52-.081.238-.185.525-.312.86-.184.49-.449 1.147-.795 1.97-.346.825-.778 1.805-1.297 2.94-.646 1.41-1.28 2.563-1.902 3.459a7.964 7.964 0 0 1-1.522 1.702c-.542.454-1.026.681-1.453.681Zm15.808-4.175c-.219 0-.329-.102-.329-.305 0-1.41.796-3.608 2.387-6.595.115-.215.294-.532.536-.95a3.057 3.057 0 0 0-.986.269c-.254.12-.421.18-.501.18-.208 0-.312-.102-.312-.306 0-.31.715-.579 2.145-.806.196-.346.443-.776.743-1.29.311-.514.68-1.117 1.107-1.81.311-.514.576-.962.795-1.344.219-.395.398-.753.537-1.076.046-.12.121-.179.224-.179.219 0 .329.12.329.359 0 .083-.138.364-.415.842-.265.466-.686 1.183-1.263 2.15l-1.366 2.276c.438-.047.9-.083 1.384-.107.484-.024.98-.036 1.487-.036 1.015 0 2.876.09 5.586.269.23-.514.472-1.016.726-1.505.265-.502.542-.998.83-1.488.415-.729.778-1.296 1.089-1.702.312-.419.542-.688.692-.807.15-.12.271-.18.363-.18.173 0 .26.096.26.288 0 .095-.052.179-.156.25-.207.156-.461.437-.761.843-.3.406-.634.938-1.003 1.595a32.219 32.219 0 0 0-1.418 2.76c.404 0 .605.101.605.304a.297.297 0 0 1-.086.215c-.058.06-.144.084-.259.072l-.519-.036c-1.165 2.688-1.747 4.528-1.747 5.52v.394c0 .143-.098.215-.294.215-.184 0-.276-.209-.276-.627 0-1.051.564-2.903 1.694-5.556a179.406 179.406 0 0 0-3.476-.179 55.394 55.394 0 0 0-1.954-.054 27.2 27.2 0 0 0-3.095.162l-.744 1.344c-.565 1.04-1.009 1.971-1.331 2.795-.323.813-.542 1.422-.658 1.829-.115.465-.19.824-.224 1.075-.035.25-.064.484-.087.699-.011.155-.098.233-.259.233Zm17.79-1.846c-.934 0-1.401-.544-1.401-1.631 0-.502.116-1.027.346-1.577a6.17 6.17 0 0 1 .917-1.523 5.3 5.3 0 0 1 1.262-1.165c.473-.299.951-.448 1.435-.448.427 0 .738.167.934.502.196.334.294.704.294 1.11a4.75 4.75 0 0 1-.311 1.65 5.957 5.957 0 0 1-.847 1.523 4.746 4.746 0 0 1-1.211 1.129c-.45.286-.922.43-1.418.43Zm-.017-.574c.069 0 .109-.006.121-.018.449-.06.864-.227 1.245-.501.38-.275.709-.616.986-1.022a4.99 4.99 0 0 0 .657-1.344c.15-.478.225-.95.225-1.416 0-.275-.075-.49-.225-.645a.76.76 0 0 0-.571-.233c-.334 0-.692.143-1.072.43a5.795 5.795 0 0 0-1.055 1.093 6.948 6.948 0 0 0-.795 1.398c-.208.478-.312.908-.312 1.29 0 .646.265.968.796.968Zm6.122 1.9c-.219 0-.329-.18-.329-.538 0-.525.283-1.445.847-2.76.577-1.314 1.43-3.034 2.56-5.16-.438 0-.853.059-1.245.178-.381.108-.583.245-.606.413a.314.314 0 0 1-.086.143c-.035.036-.092.054-.173.054-.184 0-.277-.096-.277-.287 0-.31.237-.568.709-.77.473-.204 1.136-.305 1.989-.305l1.193-2.043a51.5 51.5 0 0 0 .26-.43 15.3 15.3 0 0 1 .311-.538c.115-.167.248-.251.398-.251.092 0 .161.03.207.09a.227.227 0 0 1 .069.16c0 .18-.253.658-.76 1.435a68.815 68.815 0 0 0-1.021 1.577c.173 0 .433.018.778.053a22 22 0 0 1 1.228.126c.173.012.26.101.26.269 0 .19-.104.286-.312.286a6 6 0 0 1-.484-.035 12.827 12.827 0 0 0-.778-.09 4.923 4.923 0 0 0-.709-.018L179 50.3c-2.341 4.265-3.505 6.918-3.494 7.957l.018.143v.036c0 .191-.098.287-.294.287Zm7.393-.914c-.484 0-.865-.173-1.142-.52-.276-.346-.415-.77-.415-1.272 0-.86.277-1.745.83-2.653.15-.25.323-.495.519-.734.196-.251.409-.49.64-.717a5.583 5.583 0 0 1 1.09-.86c.38-.227.749-.34 1.106-.34.588 0 .882.286.882.86 0 .716-.403 1.367-1.21 1.953-.75.525-1.487.788-2.214.788-.127 0-.242-.006-.346-.018a8.196 8.196 0 0 1-.259-.071c-.115.227-.219.52-.311.878a3.783 3.783 0 0 0-.139.932c0 .788.335 1.183 1.003 1.183a4.15 4.15 0 0 0 1.539-.287c.485-.203 1.061-.58 1.73-1.13.415-.334.726-.603.934-.806.207-.203.432-.418.674-.645a.344.344 0 0 1 .19-.072c.058 0 .115.018.173.054.058.036.087.09.087.161 0 .132-.116.317-.346.556-.196.191-.404.394-.623.61-.219.203-.565.49-1.037.86a6.102 6.102 0 0 1-1.661.95c-.599.226-1.164.34-1.694.34Zm-.018-4.068c.369 0 .721-.06 1.055-.18.335-.119.652-.292.951-.52.669-.513 1.003-.997 1.003-1.45 0-.204-.121-.305-.363-.305-.461 0-.997.292-1.608.878-.3.286-.548.55-.744.788a6.05 6.05 0 0 0-.518.753.681.681 0 0 0 .224.036Zm7.982 4.229c-.53 0-.939-.167-1.228-.502-.276-.346-.415-.8-.415-1.362 0-.406.07-.896.208-1.47.242-.967.651-2.09 1.228-3.368.449-.968.934-1.918 1.452-2.85.519-.944 1.09-1.87 1.712-2.777.992-1.458 1.684-2.187 2.076-2.187.253 0 .38.072.38.215 0 .203-.323.711-.968 1.524l-1.211 1.523a21.718 21.718 0 0 0-2.577 4.032 23.96 23.96 0 0 0-1.539 4.122 4.407 4.407 0 0 0-.155 1.111c0 .908.357 1.362 1.072 1.362.253 0 .513-.078.778-.233.265-.143.409-.215.432-.215.139 0 .208.101.208.305a.487.487 0 0 1-.19.412 2.384 2.384 0 0 1-1.263.358Z"/>
</svg>
